<?xml version="1.0" standalone="no"?>
<!DOCTYPE svg PUBLIC "-//W3C//DTD SVG 1.1//EN"
"http://www.w3.org/Graphics/SVG/1.1/DTD/svg11.dtd">

<svg width="584" height="827" view_box="0 0 584 827"
xmlns="http://www.w3.org/2000/svg"
xmlns:link="http://www.w3.org/1999/xlink">\n\n<desc>Généré par Mocodo 2.3.7 le Wed, 22 Sep 2021 02:22:42</desc>

<rect id="frame" x="0" y="0" width="584" height="827" fill="none" stroke="none" stroke-width="0"/>

<!-- Association spoken -->
<line x1="224" y1="510" x2="369" y2="510" stroke="#57483d" stroke-width="2"/>
<text x="292" y="535.0" fill="#57483d" font-family="Comic Sans MS" font-size="14">1,1</text>
<line x1="510" y1="510" x2="369" y2="510" stroke="#57483d" stroke-width="2"/>
<text x="421" y="535.0" fill="#57483d" font-family="Comic Sans MS" font-size="14">0,N</text>
<g id="association-spoken">
	<path d="M 381 471 a 30 30 90 0 1 30 30 V 510 h -84 V 501 a 30 30 90 0 1 30 -30" fill="#c6aea5" stroke="#c6aea5" stroke-width="0"/>
	<path d="M 411 510.0 v 9 a 30 30 90 0 1 -30 30 H 357 a 30 30 90 0 1 -30 -30 V 510.0 H 84" fill="#d3b5b2" stroke="#d3b5b2" stroke-width="0"/>
	<rect x="327" y="471" width="84" height="78" fill="none" rx="30" stroke="none" stroke-width="5"/>
	<line x1="327" y1="510" x2="411" y2="510" stroke="none" stroke-width="0.5"/>
	<text x="341" y="497.0" fill="#422f2c" font-family="Arial Black" font-size="14">spoken</text>
</g>

<!-- Association create -->
<line x1="224" y1="510" x2="224" y2="273" stroke="#57483d" stroke-width="2"/>
<text x="197.0" y="380" fill="#57483d" font-family="Comic Sans MS" font-size="14">1,1</text>
<line x1="78" y1="273" x2="224" y2="273" stroke="#57483d" stroke-width="2"/>
<text x="144" y="298.0" fill="#57483d" font-family="Comic Sans MS" font-size="14">0,N</text>
<g id="association-create">
	<path d="M 234 234 a 30 30 90 0 1 30 30 V 273 h -80 V 264 a 30 30 90 0 1 30 -30" fill="#c6aea5" stroke="#c6aea5" stroke-width="0"/>
	<path d="M 264 273.0 v 9 a 30 30 90 0 1 -30 30 H 214 a 30 30 90 0 1 -30 -30 V 273.0 H 80" fill="#d3b5b2" stroke="#d3b5b2" stroke-width="0"/>
	<rect x="184" y="234" width="80" height="78" fill="none" rx="30" stroke="none" stroke-width="5"/>
	<line x1="184" y1="273" x2="264" y2="273" stroke="none" stroke-width="0.5"/>
	<text x="198" y="260.0" fill="#422f2c" font-family="Arial Black" font-size="14">create</text>
</g>

<!-- Association prefer -->
<line x1="224" y1="510" x2="78" y2="510" stroke="#57483d" stroke-width="2"/>
<text x="131" y="535.0" fill="#57483d" font-family="Comic Sans MS" font-size="14">0,N</text>
<line x1="78" y1="273" x2="78" y2="510" stroke="#57483d" stroke-width="2"/>
<text x="88.0" y="380" fill="#57483d" font-family="Comic Sans MS" font-size="14">0,N</text>
<g id="association-prefer">
	<path d="M 86 471 a 30 30 90 0 1 30 30 V 510 h -76 V 501 a 30 30 90 0 1 30 -30" fill="#c6aea5" stroke="#c6aea5" stroke-width="0"/>
	<path d="M 116 510.0 v 9 a 30 30 90 0 1 -30 30 H 70 a 30 30 90 0 1 -30 -30 V 510.0 H 76" fill="#d3b5b2" stroke="#d3b5b2" stroke-width="0"/>
	<rect x="40" y="471" width="76" height="78" fill="none" rx="30" stroke="none" stroke-width="5"/>
	<line x1="40" y1="510" x2="116" y2="510" stroke="none" stroke-width="0.5"/>
	<text x="54" y="497.0" fill="#422f2c" font-family="Arial Black" font-size="14">prefer</text>
</g>

<!-- Association obtain -->
<line x1="78" y1="273" x2="78" y2="91" stroke="#57483d" stroke-width="2"/>
<text x="88.0" y="176" fill="#57483d" font-family="Comic Sans MS" font-size="14">1,1</text>
<line x1="224" y1="91" x2="78" y2="91" stroke="#57483d" stroke-width="2"/>
<text x="135" y="116.0" fill="#57483d" font-family="Comic Sans MS" font-size="14">0,N</text>
<g id="association-obtain">
	<path d="M 87 52 a 30 30 90 0 1 30 30 V 91 h -78 V 82 a 30 30 90 0 1 30 -30" fill="#c6aea5" stroke="#c6aea5" stroke-width="0"/>
	<path d="M 117 91.0 v 9 a 30 30 90 0 1 -30 30 H 69 a 30 30 90 0 1 -30 -30 V 91.0 H 78" fill="#d3b5b2" stroke="#d3b5b2" stroke-width="0"/>
	<rect x="39" y="52" width="78" height="78" fill="none" rx="30" stroke="none" stroke-width="5"/>
	<line x1="39" y1="91" x2="117" y2="91" stroke="none" stroke-width="0.5"/>
	<text x="53" y="78.0" fill="#422f2c" font-family="Arial Black" font-size="14">obtain</text>
</g>

<!-- Association defined -->
<line x1="78" y1="736" x2="224" y2="736" stroke="#57483d" stroke-width="2"/>
<text x="146" y="761.0" fill="#57483d" font-family="Comic Sans MS" font-size="14">0,N</text>
<line x1="224" y1="510" x2="224" y2="736" stroke="#57483d" stroke-width="2"/>
<text x="197.0" y="650" fill="#57483d" font-family="Comic Sans MS" font-size="14">1,1</text>
<g id="association-defined">
	<path d="M 237 697 a 30 30 90 0 1 30 30 V 736 h -86 V 727 a 30 30 90 0 1 30 -30" fill="#c6aea5" stroke="#c6aea5" stroke-width="0"/>
	<path d="M 267 736.0 v 9 a 30 30 90 0 1 -30 30 H 211 a 30 30 90 0 1 -30 -30 V 736.0 H 86" fill="#d3b5b2" stroke="#d3b5b2" stroke-width="0"/>
	<rect x="181" y="697" width="86" height="78" fill="none" rx="30" stroke="none" stroke-width="5"/>
	<line x1="181" y1="736" x2="267" y2="736" stroke="none" stroke-width="0.5"/>
	<text x="195" y="723.0" fill="#422f2c" font-family="Arial Black" font-size="14">defined</text>
</g>

<!-- Association uses -->
<line x1="510" y1="91" x2="369" y2="91" stroke="#57483d" stroke-width="2"/>
<text x="421" y="116.0" fill="#57483d" font-family="Comic Sans MS" font-size="14">0,N</text>
<line x1="224" y1="510" x2="369" y2="91" stroke="#57483d" stroke-width="2"/>
<text x="237.199665901" y="380" fill="#57483d" font-family="Comic Sans MS" font-size="14">1,N</text>
<g id="association-uses">
	<path d="M 372 52 a 30 30 90 0 1 30 30 V 91 h -66 V 82 a 30 30 90 0 1 30 -30" fill="#c6aea5" stroke="#c6aea5" stroke-width="0"/>
	<path d="M 402 91.0 v 9 a 30 30 90 0 1 -30 30 H 366 a 30 30 90 0 1 -30 -30 V 91.0 H 66" fill="#d3b5b2" stroke="#d3b5b2" stroke-width="0"/>
	<rect x="336" y="52" width="66" height="78" fill="none" rx="30" stroke="none" stroke-width="5"/>
	<line x1="336" y1="91" x2="402" y2="91" stroke="none" stroke-width="0.5"/>
	<text x="350" y="78.0" fill="#422f2c" font-family="Arial Black" font-size="14">uses</text>
</g>

<!-- Association Has -->
<line x1="224" y1="510" x2="369" y2="273" stroke="#57483d" stroke-width="2"/>
<text x="292" y="430.740813778" fill="#57483d" font-family="Comic Sans MS" font-size="14">1,1</text>
<line x1="510" y1="273" x2="369" y2="273" stroke="#57483d" stroke-width="2"/>
<text x="421" y="298.0" fill="#57483d" font-family="Comic Sans MS" font-size="14">0,N</text>
<g id="association-Has">
	<path d="M 369 234 a 30 30 90 0 1 30 30 V 273 h -60 V 264 a 30 30 90 0 1 30 -30" fill="#c6aea5" stroke="#c6aea5" stroke-width="0"/>
	<path d="M 399 273.0 v 9 a 30 30 90 0 1 -30 30 H 369 a 30 30 90 0 1 -30 -30 V 273.0 H 60" fill="#d3b5b2" stroke="#d3b5b2" stroke-width="0"/>
	<rect x="339" y="234" width="60" height="78" fill="none" rx="30" stroke="none" stroke-width="5"/>
	<line x1="339" y1="273" x2="399" y2="273" stroke="none" stroke-width="0.5"/>
	<text x="353" y="260.0" fill="#422f2c" font-family="Arial Black" font-size="14">Has</text>
</g>

<!-- Association is -->
<line x1="224" y1="510" x2="369" y2="736" stroke="#57483d" stroke-width="2"/>
<text x="292" y="595.275957206" fill="#57483d" font-family="Comic Sans MS" font-size="14">1,1</text>
<line x1="510" y1="736" x2="369" y2="736" stroke="#57483d" stroke-width="2"/>
<text x="421" y="761.0" fill="#57483d" font-family="Comic Sans MS" font-size="14">0,N</text>
<g id="association-is">
	<path d="M 360 697 a 30 30 90 0 1 30 30 V 736 h -42 V 727 a 30 30 90 0 1 30 -30" fill="#c6aea5" stroke="#c6aea5" stroke-width="0"/>
	<path d="M 390 736.0 v 9 a 30 30 90 0 1 -30 30 H 378 a 30 30 90 0 1 -30 -30 V 736.0 H 42" fill="#d3b5b2" stroke="#d3b5b2" stroke-width="0"/>
	<rect x="348" y="697" width="42" height="78" fill="none" rx="30" stroke="none" stroke-width="5"/>
	<line x1="348" y1="736" x2="390" y2="736" stroke="none" stroke-width="0.5"/>
	<text x="362" y="723.0" fill="#422f2c" font-family="Arial Black" font-size="14">is</text>
</g>

<!-- Entity category -->
<g id="entity-category">
	<g id="frame-category">
		<rect x="20" y="665" width="116" height="38" fill="#cbcbb5" stroke="#cbcbb5" stroke-width="0"/>
		<rect x="20" y="703.0" width="116" height="104" fill="#e4e3b4" stroke="#e4e3b4" stroke-width="0"/>
		<rect x="20" y="665" width="116" height="142" fill="none" stroke="none" stroke-width="5"/>
		<line x1="20" y1="703" x2="136" y2="703" stroke="none" stroke-width="0.5"/>
	</g>
	<text x="43" y="691.0" fill="#422f2c" font-family="Arial Black" font-size="14">category</text>
	<text x="34" y="722.0" fill="#57483d" font-family="Arial Black" font-size="14">name</text>
	<text x="34" y="744.0" fill="#57483d" font-family="Arial Black" font-size="14">description</text>
	<text x="34" y="766.0" fill="#57483d" font-family="Arial Black" font-size="14">createdAt</text>
	<text x="34" y="788.0" fill="#57483d" font-family="Arial Black" font-size="14">updatedAt</text>
</g>

<!-- Entity language -->
<g id="entity-language">
	<g id="frame-language">
		<rect x="456" y="450" width="108" height="38" fill="#cbcbb5" stroke="#cbcbb5" stroke-width="0"/>
		<rect x="456" y="488.0" width="108" height="82" fill="#e4e3b4" stroke="#e4e3b4" stroke-width="0"/>
		<rect x="456" y="450" width="108" height="120" fill="none" stroke="none" stroke-width="5"/>
		<line x1="456" y1="488" x2="564" y2="488" stroke="none" stroke-width="0.5"/>
	</g>
	<text x="474" y="476.0" fill="#422f2c" font-family="Arial Black" font-size="14">language</text>
	<text x="470" y="507.0" fill="#57483d" font-family="Arial Black" font-size="14">name</text>
	<text x="470" y="529.0" fill="#57483d" font-family="Arial Black" font-size="14">createdAt</text>
	<text x="470" y="551.0" fill="#57483d" font-family="Arial Black" font-size="14">updatedAt</text>
</g>

<!-- Entity level -->
<g id="entity-level">
	<g id="frame-level">
		<rect x="456" y="213" width="108" height="38" fill="#cbcbb5" stroke="#cbcbb5" stroke-width="0"/>
		<rect x="456" y="251.0" width="108" height="82" fill="#e4e3b4" stroke="#e4e3b4" stroke-width="0"/>
		<rect x="456" y="213" width="108" height="120" fill="none" stroke="none" stroke-width="5"/>
		<line x1="456" y1="251" x2="564" y2="251" stroke="none" stroke-width="0.5"/>
	</g>
	<text x="491" y="239.0" fill="#422f2c" font-family="Arial Black" font-size="14">level</text>
	<text x="470" y="270.0" fill="#57483d" font-family="Arial Black" font-size="14">name</text>
	<text x="470" y="292.0" fill="#57483d" font-family="Arial Black" font-size="14">createdAt</text>
	<text x="470" y="314.0" fill="#57483d" font-family="Arial Black" font-size="14">updatedAt</text>
</g>

<!-- Entity tech -->
<g id="entity-tech">
	<g id="frame-tech">
		<rect x="456" y="20" width="108" height="38" fill="#cbcbb5" stroke="#cbcbb5" stroke-width="0"/>
		<rect x="456" y="58.0" width="108" height="104" fill="#e4e3b4" stroke="#e4e3b4" stroke-width="0"/>
		<rect x="456" y="20" width="108" height="142" fill="none" stroke="none" stroke-width="5"/>
		<line x1="456" y1="58" x2="564" y2="58" stroke="none" stroke-width="0.5"/>
	</g>
	<text x="492" y="46.0" fill="#422f2c" font-family="Arial Black" font-size="14">tech</text>
	<text x="470" y="77.0" fill="#57483d" font-family="Arial Black" font-size="14">name</text>
	<text x="470" y="99.0" fill="#57483d" font-family="Arial Black" font-size="14">color</text>
	<text x="470" y="121.0" fill="#57483d" font-family="Arial Black" font-size="14">createdAt</text>
	<text x="470" y="143.0" fill="#57483d" font-family="Arial Black" font-size="14">updatedAt</text>
</g>

<!-- Entity user -->
<g id="entity-user">
	<g id="frame-user">
		<rect x="22" y="191" width="112" height="38" fill="#cbcbb5" stroke="#cbcbb5" stroke-width="0"/>
		<rect x="22" y="229.0" width="112" height="126" fill="#e4e3b4" stroke="#e4e3b4" stroke-width="0"/>
		<rect x="22" y="191" width="112" height="164" fill="none" stroke="none" stroke-width="5"/>
		<line x1="22" y1="229" x2="134" y2="229" stroke="none" stroke-width="0.5"/>
	</g>
	<text x="61" y="217.0" fill="#422f2c" font-family="Arial Black" font-size="14">user</text>
	<text x="36" y="248.0" fill="#57483d" font-family="Arial Black" font-size="14">user_name</text>
	<text x="36" y="270.0" fill="#57483d" font-family="Arial Black" font-size="14">email</text>
	<text x="36" y="292.0" fill="#57483d" font-family="Arial Black" font-size="14">password</text>
	<text x="36" y="314.0" fill="#57483d" font-family="Arial Black" font-size="14">createdAt</text>
	<text x="36" y="336.0" fill="#57483d" font-family="Arial Black" font-size="14">updatedAt</text>
</g>

<!-- Entity role -->
<g id="entity-role">
	<g id="frame-role">
		<rect x="170" y="31" width="108" height="38" fill="#cbcbb5" stroke="#cbcbb5" stroke-width="0"/>
		<rect x="170" y="69.0" width="108" height="82" fill="#e4e3b4" stroke="#e4e3b4" stroke-width="0"/>
		<rect x="170" y="31" width="108" height="120" fill="none" stroke="none" stroke-width="5"/>
		<line x1="170" y1="69" x2="278" y2="69" stroke="none" stroke-width="0.5"/>
	</g>
	<text x="208" y="57.0" fill="#422f2c" font-family="Arial Black" font-size="14">role</text>
	<text x="184" y="88.0" fill="#57483d" font-family="Arial Black" font-size="14">role</text>
	<text x="184" y="110.0" fill="#57483d" font-family="Arial Black" font-size="14">createdAt</text>
	<text x="184" y="132.0" fill="#57483d" font-family="Arial Black" font-size="14">updatedAt</text>
</g>

<!-- Entity type -->
<g id="entity-type">
	<g id="frame-type">
		<rect x="456" y="676" width="108" height="38" fill="#cbcbb5" stroke="#cbcbb5" stroke-width="0"/>
		<rect x="456" y="714.0" width="108" height="82" fill="#e4e3b4" stroke="#e4e3b4" stroke-width="0"/>
		<rect x="456" y="676" width="108" height="120" fill="none" stroke="none" stroke-width="5"/>
		<line x1="456" y1="714" x2="564" y2="714" stroke="none" stroke-width="0.5"/>
	</g>
	<text x="493" y="702.0" fill="#422f2c" font-family="Arial Black" font-size="14">type</text>
	<text x="470" y="733.0" fill="#57483d" font-family="Arial Black" font-size="14">type</text>
	<line x1="470" y1="738.0" x2="504" y2="738.0" stroke="#57483d" stroke-width="2"/>
	<text x="470" y="755.0" fill="#57483d" font-family="Arial Black" font-size="14">createdAt</text>
	<text x="470" y="777.0" fill="#57483d" font-family="Arial Black" font-size="14">updatedAt</text>
</g>

<!-- Entity card -->
<g id="entity-card">
	<g id="frame-card">
		<rect x="166" y="395" width="116" height="38" fill="#cbcbb5" stroke="#cbcbb5" stroke-width="0"/>
		<rect x="166" y="433.0" width="116" height="192" fill="#e4e3b4" stroke="#e4e3b4" stroke-width="0"/>
		<rect x="166" y="395" width="116" height="230" fill="none" stroke="none" stroke-width="5"/>
		<line x1="166" y1="433" x2="282" y2="433" stroke="none" stroke-width="0.5"/>
	</g>
	<text x="206" y="421.0" fill="#422f2c" font-family="Arial Black" font-size="14">card</text>
	<text x="180" y="452.0" fill="#57483d" font-family="Arial Black" font-size="14">title</text>
	<line x1="180" y1="457.0" x2="212" y2="457.0" stroke="#57483d" stroke-width="2"/>
	<text x="180" y="474.0" fill="#57483d" font-family="Arial Black" font-size="14">slug</text>
	<text x="180" y="496.0" fill="#57483d" font-family="Arial Black" font-size="14">website</text>
	<text x="180" y="518.0" fill="#57483d" font-family="Arial Black" font-size="14">description</text>
	<text x="180" y="540.0" fill="#57483d" font-family="Arial Black" font-size="14">url_image</text>
	<text x="180" y="562.0" fill="#57483d" font-family="Arial Black" font-size="14">url</text>
	<text x="180" y="584.0" fill="#57483d" font-family="Arial Black" font-size="14">createdAt</text>
	<text x="180" y="606.0" fill="#57483d" font-family="Arial Black" font-size="14">updatedAt</text>
</g>
</svg>