<?xml version="1.0" encoding="utf-8"?>
<!-- Generator: Adobe Illustrator 25.4.1, SVG Export Plug-In . SVG Version: 6.00 Build 0)  -->
<svg version="1.1" id="Calque_1" xmlns="http://www.w3.org/2000/svg" xmlns:xlink="http://www.w3.org/1999/xlink" x="0px" y="0px"
	 viewBox="0 0 512 512" style="enable-background:new 0 0 512 512;" xml:space="preserve">
<style type="text/css">
	.st0{fill:url(#SVGID_1_);}
</style>
<g transform="translate(0,0)">
	<linearGradient id="SVGID_1_" gradientUnits="userSpaceOnUse" x1="17.3475" y1="256.594" x2="497.4563" y2="256.594">
		<stop  offset="0" style="stop-color:#057E94"/>
		<stop  offset="1" style="stop-color:#0198B6"/>
	</linearGradient>
	<path class="st0" d="M139.6,23.6c-1.6,0-3.1,0.1-4.7,0.1l171.8,258.1h146.2c15.4-16.9,27.9-35.3,35.7-56.6h-96.9
		c-7.3,18.2-25.1,31.1-45.8,31.1c-27.2,0-49.4-22.2-49.4-49.4c0-11.4,4-22,10.5-30.4l-49.2-77.7c0,0.1-0.1,0.1-0.1,0.2
		c-1.2-2.1-2.4-4-3.6-6C224.1,44.9,180.9,23.3,139.6,23.6L139.6,23.6z M368.3,26.2c-35.9,0.3-72.6,18.1-100.8,57.7h204.1
		C447.1,47.1,408.3,25.9,368.3,26.2L368.3,26.2z M114.3,26.5c-11.5,2.6-22.6,7-32.9,13c10.7,9.1,17.5,22.6,17.5,37.6
		c0,12.7-4.9,24.3-12.8,33.1l43.2,67.3h85.6L114.3,26.5L114.3,26.5z M49.5,46.4c-17.1,0-30.7,13.6-30.7,30.7
		c0,17.1,13.6,30.7,30.7,30.7s30.7-13.6,30.7-30.7S66.6,46.4,49.5,46.4z M282.3,102.6l39,61.5c7.2-4.2,15.6-6.6,24.6-6.6
		c27,0,49.2,22,49.4,49H494c2.6-11.8,3.8-24.5,3.3-38.2c-0.7-24.6-6.2-46.7-15.2-65.7L282.3,102.6L282.3,102.6z M22.9,118.6
		c-4,15-6,31.6-5.4,49.7c0.1,3.1,0.3,6.2,0.6,9.2h89.1l-36-56.1c-6.5,3.2-13.9,5-21.6,5C39.7,126.5,30.6,123.6,22.9,118.6
		L22.9,118.6z M345.9,176.2c-17.1,0-30.7,13.6-30.7,30.7s13.6,30.7,30.7,30.7c17.1,0,30.7-13.6,30.7-30.7S362.9,176.2,345.9,176.2
		L345.9,176.2z M20.8,196.2c3.7,16.9,10.2,32.2,18.8,46.3h157l2.8,4.3L277,369.5l9.1,14.3h-73.8c-1.4,7-4.3,13.4-8.3,19
		c22.2,24.6,41.3,52.6,53.8,86.8c35.2-90.9,118.1-134.9,176.6-189.2H296.6l-2.8-4.2l-66.6-100.1L20.8,196.2L20.8,196.2z M52.5,261.2
		c21.2,27.2,49.8,50.8,79.3,75.3c8.6-7.4,19.8-11.8,32-11.8c24.1,0,44.3,17.5,48.6,40.4h39.7l-65.8-103.9H52.5z M163.8,343.4
		c-17.1,0-30.7,13.6-30.7,30.7c0,17.1,13.6,30.7,30.7,30.7c17.1,0,30.7-13.6,30.7-30.7S180.9,343.4,163.8,343.4L163.8,343.4z"/>
</g>
</svg>
